<svg width="21" height="18" viewBox="0 0 21 18" fill="none" xmlns="http://www.w3.org/2000/svg">
<path fill-rule="evenodd" clip-rule="evenodd" d="M6.10352e-05 9C6.10352e-05 8.66848 0.131757 8.35054 0.366178 8.11612C0.600598 7.8817 0.91854 7.75 1.25006 7.75H15.7326L10.3651 2.385C10.1303 2.15028 9.99848 1.83194 9.99848 1.5C9.99848 1.16806 10.1303 0.849717 10.3651 0.615C10.5998 0.380283 10.9181 0.248421 11.2501 0.248421C11.582 0.248421 11.9003 0.380283 12.1351 0.615L19.6351 8.115C19.7515 8.23111 19.8438 8.36905 19.9068 8.52092C19.9699 8.67278 20.0023 8.83558 20.0023 9C20.0023 9.16442 19.9699 9.32722 19.9068 9.47908C19.8438 9.63095 19.7515 9.76889 19.6351 9.885L12.1351 17.385C11.9003 17.6197 11.582 17.7516 11.2501 17.7516C10.9181 17.7516 10.5998 17.6197 10.3651 17.385C10.1303 17.1503 9.99848 16.8319 9.99848 16.5C9.99848 16.1681 10.1303 15.8497 10.3651 15.615L15.7326 10.25H1.25006C0.91854 10.25 0.600598 10.1183 0.366178 9.88388C0.131757 9.64946 6.10352e-05 9.33152 6.10352e-05 9Z" fill="#5D5FEF"/>
</svg>
